<svg xmlns="http://www.w3.org/2000/svg" xmlns:xlink="http://www.w3.org/1999/xlink" xmlns:lucid="lucid" width="970.06" height="1125.4"><g transform="translate(-9.944444444442524 -114.59722222216976)" lucid:page-tab-id="zbyc-MxxVt~5"><path d="M280 134.6h680V1220H280z" stroke="#000" stroke-width="2" fill-opacity="0"/><use xlink:href="#a" transform="matrix(1,0,0,1,288,142.59722222216976) translate(255.53784829389792 26.045061728394327)"/><path d="M89.36 494.35c0 10.9-8.84 19.75-19.75 19.75-10.9 0-19.74-8.85-19.74-19.75S58.7 474.6 69.6 474.6c10.92 0 19.76 8.84 19.76 19.75z" stroke="#000" stroke-width="2" fill="#fff"/><path d="M69.6 514.1v55.3l39.68 63.2M69.6 569.4l-39.66 63.2m0-98.75h79.34" stroke="#000" stroke-width="2" fill="none"/><path d="M29.94 474.6h79.34v180H29.94z" fill="none"/><use xlink:href="#b" transform="matrix(1,0,0,1,-50.055555555557476,632.5972222221698) translate(97.025 14.6)"/><path d="M490 700c0 33.14-35.82 60-80 60s-80-26.86-80-60 35.82-60 80-60 80 26.86 80 60z" stroke="#000" stroke-width="2" fill="#fff"/><use xlink:href="#c" transform="matrix(1,0,0,1,329.9999999999999,640) translate(33.555 63.15)"/><use xlink:href="#d" transform="matrix(1,0,0,1,329.9999999999999,640) translate(71.505 63.15)"/><use xlink:href="#e" transform="matrix(1,0,0,1,329.9999999999999,640) translate(86.505 63.15)"/><path d="M480 320c0 33.14-35.82 60-80 60s-80-26.86-80-60 35.82-60 80-60 80 26.86 80 60z" stroke="#000" stroke-width="2" fill="#fff"/><use xlink:href="#f" transform="matrix(1,0,0,1,320,260) translate(58.029999999999994 63.15)"/><path d="M491.8 318.78l-9.62 2-.4-1.96 9.63-2zm28.9-5.97l-19.26 4-.4-1.97 19.26-3.98zm28.9-5.97l-19.26 4-.4-1.97 19.25-4zm28.9-5.97l-19.27 3.98-.4-1.96 19.26-3.98zm11.16-3.7h6.68l-8.22 1.7-.4-1.95 1.94-.4zm104.12-21.6h-2.9l2.78-.57zm29.18-4.6l-19.26 4-.4-1.96 19.26-3.98zm28.9-5.96l-19.27 3.98-.4-1.96 19.25-3.98zm19.26-4l-9.63 2-.42-1.95 9.63-2z" stroke="#000" stroke-width=".05"/><path d="M482.2 320.77l-1.23.26.03-1.02v-.4l-.03-.62.83-.17z"/><path d="M482.24 320.8l-1.3.26.04-1.05v-.4l-.03-.64.87-.18zM481 319l.02.6v.4l-.03 1 1.18-.25-.4-1.9zM772.7 259.67l-16.05 14.6-1.35-1.5 13.55-12.3-17.32-5.94.64-1.9z" stroke="#000" stroke-width=".05"/><use xlink:href="#g" transform="matrix(1,0,0,1,589.6646274964345,275.5652058795218) translate(0 14.4)"/><path d="M933.7 259.67c0 32.95-35.82 59.66-80 59.66-44.2 0-80-26.7-80-59.66 0-32.96 35.8-59.67 80-59.67 44.18 0 80 26.7 80 59.67z" stroke="#000" stroke-width="2" fill="#e5e5e5"/><use xlink:href="#h" transform="matrix(1,0,0,1,773.6944444444425,200) translate(48.23 51.9)"/><use xlink:href="#i" transform="matrix(1,0,0,1,773.6944444444425,200) translate(41.55499999999999 73.5)"/><path d="M490 905.4c0 33.14-35.82 60-80 60s-80-26.86-80-60c0-33.13 35.82-60 80-60s80 26.87 80 60z" stroke="#000" stroke-width="2" fill="#fff"/><use xlink:href="#j" transform="matrix(1,0,0,1,329.9999999999999,845.4027777778302) translate(24.104999999999997 51.9)"/><use xlink:href="#k" transform="matrix(1,0,0,1,329.9999999999999,845.4027777778302) translate(85.00500000000001 51.9)"/><use xlink:href="#l" transform="matrix(1,0,0,1,329.9999999999999,845.4027777778302) translate(125.905 51.9)"/><use xlink:href="#e" transform="matrix(1,0,0,1,329.9999999999999,845.4027777778302) translate(60.029999999999994 73.5)"/><path d="M70.5 571.72l257.6 127.84M70.53 571.73l-3.6-1.8" stroke="#000" stroke-width="2" fill="none"/><path d="M329.03 698.9L329 700v.4l.03.73-1.4-.7.9-1.78z" stroke="#000" stroke-width=".05"/><path d="M70.32 570.57L318.3 320.7M70.33 570.55l-2.83 2.86" stroke="#000" stroke-width="2" fill="none"/><path d="M319 320v.4l.04.98-.05.05-1.43-1.4 1.48-1.5z" stroke="#000" stroke-width=".05"/><path d="M933.7 420c0 33.14-35.82 60-80 60-44.2 0-80-26.86-80-60s35.8-60 80-60c44.18 0 80 26.86 80 60z" stroke="#000" stroke-width="2" fill="#e5e5e5"/><use xlink:href="#m" transform="matrix(1,0,0,1,773.6944444444425,360) translate(52.555 63.15)"/><use xlink:href="#n" transform="matrix(1,0,0,1,773.6944444444425,360) translate(93.505 63.15)"/><path d="M771.86 418.86l-.3 1.97-9.74-1.54.3-1.98zm-19.47-3.08l-.32 1.97-19.47-3.08.32-1.97zm-29.2-4.62l-.32 1.97-19.47-3.07.32-1.98zm-29.2-4.62l-.33 1.98-19.47-3.08.32-1.98zm-29.22-4.62l-.3 1.98-1.3-.2v-2.03zm-106.6-16.86v2.03l-.8-.14.32-1.97zm-10.2-1.6l-.33 1.96-19.47-3.07.32-1.98zm-29.22-4.63l-.3 1.98-19.48-3.07.3-1.98zm-29.2-4.62l-.32 2-19.46-3.1.3-1.97zm-29.2-4.6l-.32 1.97-9.73-1.54.32-1.98z" stroke="#000" stroke-width=".05"/><path d="M469.57 362.63l-17.02 6.74 14.1 11.67-1.27 1.54-16.7-13.82 20.15-8z" stroke="#000" stroke-width=".05"/><path d="M772.73 419l-.04 1v.4l.02.62-1.2-.2.32-1.97z"/><path d="M772.75 418.97l-.03 1.02v.4l.03.65-1.25-.2.32-2.03zm-1.2 1.84l1.14.2-.03-.6v-.4l.03-1-.84-.12z" stroke="#000" stroke-width=".05"/><use xlink:href="#o" transform="matrix(1,0,0,1,558.1803248762759,383.5789738670683) translate(0 14.4)"/><path d="M70.22 572.07L328.4 904.6M70.24 572.1l-2.47-3.2" stroke="#000" stroke-width="2" fill="none"/><path d="M329 905.4v.4l.05 1.3-1.47-1.9 1.46-1.13z" stroke="#000" stroke-width=".05"/><path d="M910 746.07c0 33.14-35.82 60-80 60s-80-26.86-80-60 35.82-60 80-60 80 26.86 80 60z" stroke="#000" stroke-width="2" fill="#e5e5e5"/><use xlink:href="#p" transform="matrix(1,0,0,1,749.9999999999998,686.0694444444969) translate(46.58 40.65)"/><use xlink:href="#q" transform="matrix(1,0,0,1,749.9999999999998,686.0694444444969) translate(35.55499999999999 62.25)"/><use xlink:href="#r" transform="matrix(1,0,0,1,749.9999999999998,686.0694444444969) translate(51.05499999999999 83.85000000000001)"/><path d="M747.4 744.77l-.37 1.96-9.45-1.68.35-1.97zm-18.92-3.38l-.35 1.96-18.9-3.38.34-1.97zm-28.36-5.07l-.35 1.96-11-1.97v-2.03zm-119.24-21.3v2.04l-13.45-2.4.35-1.98zM558.33 711l-.35 1.98-18.9-3.38.34-1.97zm-28.36-5.06l-.35 1.97-18.9-3.36.35-1.97zm-28.36-5.06l-.34 1.97-9.45-1.7.36-1.96z" stroke="#000" stroke-width=".05"/><path d="M492.2 699.2l-.37 1.96-.86-.15.03-1v-.4l-.03-.62z"/><path d="M492.2 699.18l-.35 2-.9-.15.03-1.02v-.4l-.03-.65zm-1.18.42v.4l-.03 1 .8.14.36-1.92-1.16-.2zM749 746.07l-20.32 7.6-.7-1.9 17.15-6.4-13.87-11.94 1.3-1.5z" stroke="#000" stroke-width=".05"/><use xlink:href="#g" transform="matrix(1,0,0,1,580.8805550868078,714.8829217536264) translate(0 14.4)"/><path d="M910 934.6c0 33.13-35.82 60-80 60s-80-26.87-80-60c0-33.14 35.82-60 80-60s80 26.86 80 60z" stroke="#000" stroke-width="2" fill="#e5e5e5"/><use xlink:href="#p" transform="matrix(1,0,0,1,749.9999999999998,874.5972222221698) translate(46.58 40.65)"/><use xlink:href="#q" transform="matrix(1,0,0,1,749.9999999999998,874.5972222221698) translate(35.55499999999999 62.25)"/><use xlink:href="#s" transform="matrix(1,0,0,1,749.9999999999998,874.5972222221698) translate(41.05499999999999 83.85000000000001)"/><path d="M747.3 933.4l-.22 2-9.45-1.08.22-2zm-18.9-2.14l-.22 2-18.9-2.15.22-1.98zm-28.35-3.2l-.23 1.98-11.04-1.25v-2.02zm-119.17-13.5v2.02l-13.38-1.5.22-2zm-22.6-2.55l-.24 2-18.9-2.14.23-2zm-28.37-3.2l-.2 2-18.92-2.15.23-2zm-28.34-3.2l-.23 1.98-9.45-1.07.23-1.98z" stroke="#000" stroke-width=".05"/><path d="M492.13 904.52l-.22 2-.93-.1.03-1V905l-.03-.6z"/><path d="M492.16 904.5l-.23 2.04-1-.1.05-1.02V905l-.03-.63zm-1.14.5v.42l-.03.96.88.1.22-1.93-1.1-.13zM749 934.6l-19.8 8.87-.8-1.83 16.7-7.48-14.62-11.04 1.2-1.6z" stroke="#000" stroke-width=".05"/><use xlink:href="#g" transform="matrix(1,0,0,1,580.8805550868078,910.8781776951855) translate(0 14.4)"/><path d="M490 1085.4c0 33.14-35.82 60-80 60s-80-26.86-80-60c0-33.13 35.82-60 80-60s80 26.87 80 60z" stroke="#000" stroke-width="2" fill="#fff"/><g><use xlink:href="#t" transform="matrix(1,0,0,1,329.9999999999999,1025.4027777778301) translate(26.579999999999995 40.65)"/><use xlink:href="#u" transform="matrix(1,0,0,1,329.9999999999999,1025.4027777778301) translate(63.58 40.65)"/><use xlink:href="#v" transform="matrix(1,0,0,1,329.9999999999999,1025.4027777778301) translate(86.47999999999999 40.65)"/><use xlink:href="#w" transform="matrix(1,0,0,1,329.9999999999999,1025.4027777778301) translate(55.529999999999994 62.25)"/><use xlink:href="#x" transform="matrix(1,0,0,1,329.9999999999999,1025.4027777778301) translate(26.105 83.85000000000001)"/></g><path d="M70.06 572.17l258.5 512.34M70.07 572.2l-1.8-3.6" stroke="#000" stroke-width="2" fill="none"/><path d="M329 1085.4v.4l.08 1.98-1.43-2.84 1.4-.7z" stroke="#000" stroke-width=".05"/><path d="M490 520c0 33.14-35.82 60-80 60s-80-26.86-80-60 35.82-60 80-60 80 26.86 80 60z" stroke="#000" stroke-width="2" fill="#fff"/><g><use xlink:href="#y" transform="matrix(1,0,0,1,329.9999999999999,460) translate(23.07999999999999 63.15)"/><use xlink:href="#z" transform="matrix(1,0,0,1,329.9999999999999,460) translate(81.98 63.15)"/><use xlink:href="#A" transform="matrix(1,0,0,1,329.9999999999999,460) translate(96.98 63.15)"/></g><path d="M69.6 553.33l258.4-33.2M69.63 553.33l-4 .5" stroke="#000" stroke-width="2" fill="none"/><path d="M329 520v.4l.03.6-.92.12-.24-1.98 1.17-.15z" stroke="#000" stroke-width=".05"/><defs><path d="M136-208V0H84v-208H4v-40h212v40h-80" id="B"/><path d="M185-48c-13 30-37 53-82 52C43 2 14-33 14-96s30-98 90-98c62 0 83 45 84 108H66c0 31 8 55 39 56 18 0 30-7 34-22zm-45-69c5-46-57-63-70-21-2 6-4 13-4 21h74" id="C"/><path d="M133-34C117-15 103 5 69 4 32 3 11-16 11-54c-1-60 55-63 116-61 1-26-3-47-28-47-18 1-26 9-28 27l-52-2c7-38 36-58 82-57s74 22 75 68l1 82c-1 14 12 18 25 15v27c-30 8-71 5-69-32zm-48 3c29 0 43-24 42-57-32 0-66-3-65 30 0 17 8 27 23 27" id="D"/><path d="M220-157c-53 9-28 100-34 157h-49v-107c1-27-5-49-29-50C55-147 81-57 75 0H25l-1-190h47c2 12-1 28 3 38 10-53 101-56 108 0 13-22 24-43 59-42 82 1 51 116 57 194h-49v-107c-1-25-5-48-29-50" id="E"/><path d="M24-248c93 1 206-16 204 79-1 75-69 88-152 82V0H24v-248zm52 121c47 0 100 7 100-41 0-47-54-39-100-39v80" id="F"/><path d="M240-174c0 40-23 61-54 70L253 0h-59l-57-94H76V0H24v-248c93 4 217-23 216 74zM76-134c48-2 112 12 112-38 0-48-66-32-112-35v73" id="G"/><path d="M140-251c80 0 125 45 125 126S219 4 139 4C58 4 15-44 15-125s44-126 125-126zm-1 214c52 0 73-35 73-88 0-50-21-86-72-86-52 0-73 35-73 86s22 88 72 88" id="H"/><g id="a"><use transform="matrix(0.09043424211248029,0,0,0.09043424211248029,0,0)" xlink:href="#B"/><use transform="matrix(0.09043424211248029,0,0,0.09043424211248029,17.363374485596214,0)" xlink:href="#C"/><use transform="matrix(0.09043424211248029,0,0,0.09043424211248029,35.45022290809227,0)" xlink:href="#D"/><use transform="matrix(0.09043424211248029,0,0,0.09043424211248029,53.53707133058833,0)" xlink:href="#E"/><use transform="matrix(0.09043424211248029,0,0,0.09043424211248029,82.47602880658202,0)" xlink:href="#F"/><use transform="matrix(0.09043424211248029,0,0,0.09043424211248029,104.18024691357729,0)" xlink:href="#G"/><use transform="matrix(0.09043424211248029,0,0,0.09043424211248029,127.60271562070969,0)" xlink:href="#H"/></g><path d="M205 0l-28-72H64L36 0H1l101-248h38L239 0h-34zm-38-99l-47-123c-12 45-31 82-46 123h93" id="I"/><path d="M59-47c-2 24 18 29 38 22v24C64 9 27 4 27-40v-127H5v-23h24l9-43h21v43h35v23H59v120" id="J"/><path d="M24 0v-261h32V0H24" id="K"/><path d="M100-194c63 0 86 42 84 106H49c0 40 14 67 53 68 26 1 43-12 49-29l28 8c-11 28-37 45-77 45C44 4 14-33 15-96c1-61 26-98 85-98zm52 81c6-60-76-77-97-28-3 7-6 17-6 28h103" id="L"/><g id="b"><use transform="matrix(0.05,0,0,0.05,0,0)" xlink:href="#I"/><use transform="matrix(0.05,0,0,0.05,12,0)" xlink:href="#J"/><use transform="matrix(0.05,0,0,0.05,17,0)" xlink:href="#K"/><use transform="matrix(0.05,0,0,0.05,20.95,0)" xlink:href="#L"/><use transform="matrix(0.05,0,0,0.05,30.950000000000003,0)" xlink:href="#J"/><use transform="matrix(0.05,0,0,0.05,35.95,0)" xlink:href="#L"/></g><path d="M153-248C145-148 188 4 80 4 36 3 13-21 6-62l32-5c4 25 16 42 43 43 27 0 39-20 39-49v-147H72v-28h81" id="M"/><path d="M100-194c62-1 85 37 85 99 1 63-27 99-86 99S16-35 15-95c0-66 28-99 85-99zM99-20c44 1 53-31 53-75 0-43-8-75-51-75s-53 32-53 75 10 74 51 75" id="N"/><path d="M24-231v-30h32v30H24zM24 0v-190h32V0H24" id="O"/><path d="M117-194c89-4 53 116 60 194h-32v-121c0-31-8-49-39-48C34-167 62-67 57 0H25l-1-190h30c1 10-1 24 2 32 11-22 29-35 61-36" id="P"/><g id="c"><use transform="matrix(0.05,0,0,0.05,0,0)" xlink:href="#M"/><use transform="matrix(0.05,0,0,0.05,9,0)" xlink:href="#N"/><use transform="matrix(0.05,0,0,0.05,19,0)" xlink:href="#O"/><use transform="matrix(0.05,0,0,0.05,22.95,0)" xlink:href="#P"/></g><path d="M141-36C126-15 110 5 73 4 37 3 15-17 15-53c-1-64 63-63 125-63 3-35-9-54-41-54-24 1-41 7-42 31l-33-3c5-37 33-52 76-52 45 0 72 20 72 64v82c-1 20 7 32 28 27v20c-31 9-61-2-59-35zM48-53c0 20 12 33 32 33 41-3 63-29 60-74-43 2-92-5-92 41" id="Q"/><use transform="matrix(0.05,0,0,0.05,0,0)" xlink:href="#Q" id="d"/><path d="M210-169c-67 3-38 105-44 169h-31v-121c0-29-5-50-35-48C34-165 62-65 56 0H25l-1-190h30c1 10-1 24 2 32 10-44 99-50 107 0 11-21 27-35 58-36 85-2 47 119 55 194h-31v-121c0-29-5-49-35-48" id="R"/><g id="e"><use transform="matrix(0.05,0,0,0.05,0,0)" xlink:href="#J"/><use transform="matrix(0.05,0,0,0.05,5,0)" xlink:href="#L"/><use transform="matrix(0.05,0,0,0.05,15,0)" xlink:href="#Q"/><use transform="matrix(0.05,0,0,0.05,25,0)" xlink:href="#R"/></g><path d="M30 0v-248h33v221h125V0H30" id="S"/><path d="M177-190C167-65 218 103 67 71c-23-6-38-20-44-43l32-5c15 47 100 32 89-28v-30C133-14 115 1 83 1 29 1 15-40 15-95c0-56 16-97 71-98 29-1 48 16 59 35 1-10 0-23 2-32h30zM94-22c36 0 50-32 50-73 0-42-14-75-50-75-39 0-46 34-46 75s6 73 46 73" id="T"/><g id="f"><use transform="matrix(0.05,0,0,0.05,0,0)" xlink:href="#S"/><use transform="matrix(0.05,0,0,0.05,10,0)" xlink:href="#N"/><use transform="matrix(0.05,0,0,0.05,20,0)" xlink:href="#T"/><use transform="matrix(0.05,0,0,0.05,30,0)" xlink:href="#O"/><use transform="matrix(0.05,0,0,0.05,33.95,0)" xlink:href="#P"/></g><path d="M18-100v-36l175-74v27L42-118l151 64v27" id="U"/><path d="M96-169c-40 0-48 33-48 73s9 75 48 75c24 0 41-14 43-38l32 2c-6 37-31 61-74 61-59 0-76-41-82-99-10-93 101-131 147-64 4 7 5 14 7 22l-32 3c-4-21-16-35-41-35" id="V"/><path d="M84 4C-5 8 30-112 23-190h32v120c0 31 7 50 39 49 72-2 45-101 50-169h31l1 190h-30c-1-10 1-25-2-33-11 22-28 36-60 37" id="W"/><path d="M85-194c31 0 48 13 60 33l-1-100h32l1 261h-30c-2-10 0-23-3-31C134-8 116 4 85 4 32 4 16-35 15-94c0-66 23-100 70-100zm9 24c-40 0-46 34-46 75 0 40 6 74 45 74 42 0 51-32 51-76 0-42-9-74-50-73" id="X"/><path d="M135-143c-3-34-86-38-87 0 15 53 115 12 119 90S17 21 10-45l28-5c4 36 97 45 98 0-10-56-113-15-118-90-4-57 82-63 122-42 12 7 21 19 24 35" id="Y"/><path d="M18-27v-27l151-64-151-65v-27l175 74v36" id="Z"/><g id="g"><use transform="matrix(0.05,0,0,0.05,0,0)" xlink:href="#U"/><use transform="matrix(0.05,0,0,0.05,10.5,0)" xlink:href="#U"/><use transform="matrix(0.05,0,0,0.05,21,0)" xlink:href="#O"/><use transform="matrix(0.05,0,0,0.05,24.95,0)" xlink:href="#P"/><use transform="matrix(0.05,0,0,0.05,34.95,0)" xlink:href="#V"/><use transform="matrix(0.05,0,0,0.05,43.95,0)" xlink:href="#K"/><use transform="matrix(0.05,0,0,0.05,47.900000000000006,0)" xlink:href="#W"/><use transform="matrix(0.05,0,0,0.05,57.900000000000006,0)" xlink:href="#X"/><use transform="matrix(0.05,0,0,0.05,67.9,0)" xlink:href="#L"/><use transform="matrix(0.05,0,0,0.05,77.9,0)" xlink:href="#Y"/><use transform="matrix(0.05,0,0,0.05,86.9,0)" xlink:href="#Z"/><use transform="matrix(0.05,0,0,0.05,97.4,0)" xlink:href="#Z"/></g><path d="M137 0h-34L2-248h35l83 218 83-218h36" id="aa"/><g id="h"><use transform="matrix(0.05,0,0,0.05,0,0)" xlink:href="#aa"/><use transform="matrix(0.05,0,0,0.05,10.65,0)" xlink:href="#Q"/><use transform="matrix(0.05,0,0,0.05,20.65,0)" xlink:href="#K"/><use transform="matrix(0.05,0,0,0.05,24.599999999999998,0)" xlink:href="#O"/><use transform="matrix(0.05,0,0,0.05,28.549999999999997,0)" xlink:href="#X"/><use transform="matrix(0.05,0,0,0.05,38.55,0)" xlink:href="#Q"/><use transform="matrix(0.05,0,0,0.05,48.55,0)" xlink:href="#J"/><use transform="matrix(0.05,0,0,0.05,53.54999999999999,0)" xlink:href="#L"/></g><path d="M115-194c55 1 70 41 70 98S169 2 115 4C84 4 66-9 55-30l1 105H24l-1-265h31l2 30c10-21 28-34 59-34zm-8 174c40 0 45-34 45-75s-6-73-45-74c-42 0-51 32-51 76 0 43 10 73 51 73" id="ab"/><path d="M206 0h-36l-40-164L89 0H53L-1-190h32L70-26l43-164h34l41 164 42-164h31" id="ac"/><path d="M114-163C36-179 61-72 57 0H25l-1-190h30c1 12-1 29 2 39 6-27 23-49 58-41v29" id="ad"/><g id="i"><use transform="matrix(0.05,0,0,0.05,0,0)" xlink:href="#ab"/><use transform="matrix(0.05,0,0,0.05,10,0)" xlink:href="#Q"/><use transform="matrix(0.05,0,0,0.05,20,0)" xlink:href="#Y"/><use transform="matrix(0.05,0,0,0.05,29,0)" xlink:href="#Y"/><use transform="matrix(0.05,0,0,0.05,38,0)" xlink:href="#ac"/><use transform="matrix(0.05,0,0,0.05,50.95,0)" xlink:href="#N"/><use transform="matrix(0.05,0,0,0.05,60.95,0)" xlink:href="#ad"/><use transform="matrix(0.05,0,0,0.05,66.9,0)" xlink:href="#X"/></g><path d="M233-177c-1 41-23 64-60 70L243 0h-38l-65-103H63V0H30v-248c88 3 205-21 203 71zM63-129c60-2 137 13 137-47 0-61-80-42-137-45v92" id="ae"/><g id="j"><use transform="matrix(0.05,0,0,0.05,0,0)" xlink:href="#ae"/><use transform="matrix(0.05,0,0,0.05,12.950000000000001,0)" xlink:href="#L"/><use transform="matrix(0.05,0,0,0.05,22.950000000000003,0)" xlink:href="#Y"/><use transform="matrix(0.05,0,0,0.05,31.950000000000003,0)" xlink:href="#O"/><use transform="matrix(0.05,0,0,0.05,35.900000000000006,0)" xlink:href="#T"/><use transform="matrix(0.05,0,0,0.05,45.900000000000006,0)" xlink:href="#P"/></g><path d="M101-234c-31-9-42 10-38 44h38v23H63V0H32v-167H5v-23h27c-7-52 17-82 69-68v24" id="af"/><g id="k"><use transform="matrix(0.05,0,0,0.05,0,0)" xlink:href="#af"/><use transform="matrix(0.05,0,0,0.05,5,0)" xlink:href="#ad"/><use transform="matrix(0.05,0,0,0.05,10.95,0)" xlink:href="#N"/><use transform="matrix(0.05,0,0,0.05,20.95,0)" xlink:href="#R"/></g><use transform="matrix(0.05,0,0,0.05,0,0)" xlink:href="#Q" id="l"/><path d="M185-189c-5-48-123-54-124 2 14 75 158 14 163 119 3 78-121 87-175 55-17-10-28-26-33-46l33-7c5 56 141 63 141-1 0-78-155-14-162-118-5-82 145-84 179-34 5 7 8 16 11 25" id="ag"/><g id="m"><use transform="matrix(0.05,0,0,0.05,0,0)" xlink:href="#ag"/><use transform="matrix(0.05,0,0,0.05,12,0)" xlink:href="#O"/><use transform="matrix(0.05,0,0,0.05,15.949999999999998,0)" xlink:href="#T"/><use transform="matrix(0.05,0,0,0.05,25.950000000000003,0)" xlink:href="#P"/></g><g id="n"><use transform="matrix(0.05,0,0,0.05,0,0)" xlink:href="#O"/><use transform="matrix(0.05,0,0,0.05,3.95,0)" xlink:href="#P"/></g><path d="M141 0L90-78 38 0H4l68-98-65-92h35l48 74 47-74h35l-64 92 68 98h-35" id="ah"/><g id="o"><use transform="matrix(0.05,0,0,0.05,0,0)" xlink:href="#U"/><use transform="matrix(0.05,0,0,0.05,10.5,0)" xlink:href="#U"/><use transform="matrix(0.05,0,0,0.05,21,0)" xlink:href="#L"/><use transform="matrix(0.05,0,0,0.05,31,0)" xlink:href="#ah"/><use transform="matrix(0.05,0,0,0.05,40,0)" xlink:href="#J"/><use transform="matrix(0.05,0,0,0.05,45,0)" xlink:href="#L"/><use transform="matrix(0.05,0,0,0.05,55,0)" xlink:href="#P"/><use transform="matrix(0.05,0,0,0.05,65,0)" xlink:href="#X"/><use transform="matrix(0.05,0,0,0.05,75,0)" xlink:href="#Y"/><use transform="matrix(0.05,0,0,0.05,84,0)" xlink:href="#Z"/><use transform="matrix(0.05,0,0,0.05,94.5,0)" xlink:href="#Z"/></g><g id="p"><use transform="matrix(0.05,0,0,0.05,0,0)" xlink:href="#ae"/><use transform="matrix(0.05,0,0,0.05,12.950000000000001,0)" xlink:href="#L"/><use transform="matrix(0.05,0,0,0.05,22.950000000000003,0)" xlink:href="#T"/><use transform="matrix(0.05,0,0,0.05,32.95,0)" xlink:href="#O"/><use transform="matrix(0.05,0,0,0.05,36.900000000000006,0)" xlink:href="#Y"/><use transform="matrix(0.05,0,0,0.05,45.900000000000006,0)" xlink:href="#J"/><use transform="matrix(0.05,0,0,0.05,50.900000000000006,0)" xlink:href="#L"/><use transform="matrix(0.05,0,0,0.05,60.900000000000006,0)" xlink:href="#ad"/></g><path d="M0 4l72-265h28L28 4H0" id="ai"/><g id="q"><use transform="matrix(0.05,0,0,0.05,0,0)" xlink:href="#J"/><use transform="matrix(0.05,0,0,0.05,5,0)" xlink:href="#L"/><use transform="matrix(0.05,0,0,0.05,15,0)" xlink:href="#Q"/><use transform="matrix(0.05,0,0,0.05,25,0)" xlink:href="#R"/><use transform="matrix(0.05,0,0,0.05,39.95,0)" xlink:href="#ai"/><use transform="matrix(0.05,0,0,0.05,44.95,0)" xlink:href="#Q"/><use transform="matrix(0.05,0,0,0.05,54.95,0)" xlink:href="#J"/><use transform="matrix(0.05,0,0,0.05,59.95,0)" xlink:href="#K"/><use transform="matrix(0.05,0,0,0.05,63.900000000000006,0)" xlink:href="#L"/><use transform="matrix(0.05,0,0,0.05,73.9,0)" xlink:href="#J"/><use transform="matrix(0.05,0,0,0.05,78.9,0)" xlink:href="#L"/></g><path d="M115-194c53 0 69 39 70 98 0 66-23 100-70 100C84 3 66-7 56-30L54 0H23l1-261h32v101c10-23 28-34 59-34zm-8 174c40 0 45-34 45-75 0-40-5-75-45-74-42 0-51 32-51 76 0 43 10 73 51 73" id="aj"/><g id="r"><use transform="matrix(0.05,0,0,0.05,0,0)" xlink:href="#aj"/><use transform="matrix(0.05,0,0,0.05,10,0)" xlink:href="#O"/><use transform="matrix(0.05,0,0,0.05,13.949999999999998,0)" xlink:href="#P"/><use transform="matrix(0.05,0,0,0.05,23.95,0)" xlink:href="#X"/><use transform="matrix(0.05,0,0,0.05,33.95,0)" xlink:href="#O"/><use transform="matrix(0.05,0,0,0.05,37.900000000000006,0)" xlink:href="#P"/><use transform="matrix(0.05,0,0,0.05,47.900000000000006,0)" xlink:href="#T"/></g><g id="s"><use transform="matrix(0.05,0,0,0.05,0,0)" xlink:href="#W"/><use transform="matrix(0.05,0,0,0.05,10,0)" xlink:href="#P"/><use transform="matrix(0.05,0,0,0.05,20,0)" xlink:href="#aj"/><use transform="matrix(0.05,0,0,0.05,30,0)" xlink:href="#O"/><use transform="matrix(0.05,0,0,0.05,33.95,0)" xlink:href="#P"/><use transform="matrix(0.05,0,0,0.05,43.95,0)" xlink:href="#X"/><use transform="matrix(0.05,0,0,0.05,53.95,0)" xlink:href="#O"/><use transform="matrix(0.05,0,0,0.05,57.900000000000006,0)" xlink:href="#P"/><use transform="matrix(0.05,0,0,0.05,67.9,0)" xlink:href="#T"/></g><g id="t"><use transform="matrix(0.05,0,0,0.05,0,0)" xlink:href="#ag"/><use transform="matrix(0.05,0,0,0.05,12,0)" xlink:href="#L"/><use transform="matrix(0.05,0,0,0.05,22,0)" xlink:href="#L"/></g><g id="u"><use transform="matrix(0.05,0,0,0.05,0,0)" xlink:href="#Q"/><use transform="matrix(0.05,0,0,0.05,10,0)" xlink:href="#K"/><use transform="matrix(0.05,0,0,0.05,13.949999999999998,0)" xlink:href="#K"/></g><path d="M108 0H70L1-190h34L89-25l56-165h34" id="ak"/><g id="v"><use transform="matrix(0.05,0,0,0.05,0,0)" xlink:href="#Q"/><use transform="matrix(0.05,0,0,0.05,10,0)" xlink:href="#V"/><use transform="matrix(0.05,0,0,0.05,19,0)" xlink:href="#J"/><use transform="matrix(0.05,0,0,0.05,24,0)" xlink:href="#O"/><use transform="matrix(0.05,0,0,0.05,27.950000000000003,0)" xlink:href="#ak"/><use transform="matrix(0.05,0,0,0.05,36.95,0)" xlink:href="#L"/></g><g id="w"><use transform="matrix(0.05,0,0,0.05,0,0)" xlink:href="#J"/><use transform="matrix(0.05,0,0,0.05,5,0)" xlink:href="#L"/><use transform="matrix(0.05,0,0,0.05,15,0)" xlink:href="#Q"/><use transform="matrix(0.05,0,0,0.05,25,0)" xlink:href="#R"/><use transform="matrix(0.05,0,0,0.05,39.95,0)" xlink:href="#Y"/></g><path d="M106-169C34-169 62-67 57 0H25v-261h32l-1 103c12-21 28-36 61-36 89 0 53 116 60 194h-32v-121c2-32-8-49-39-48" id="al"/><g id="x"><use transform="matrix(0.05,0,0,0.05,0,0)" xlink:href="#R"/><use transform="matrix(0.05,0,0,0.05,14.950000000000001,0)" xlink:href="#L"/><use transform="matrix(0.05,0,0,0.05,24.950000000000003,0)" xlink:href="#R"/><use transform="matrix(0.05,0,0,0.05,39.900000000000006,0)" xlink:href="#aj"/><use transform="matrix(0.05,0,0,0.05,49.900000000000006,0)" xlink:href="#L"/><use transform="matrix(0.05,0,0,0.05,59.900000000000006,0)" xlink:href="#ad"/><use transform="matrix(0.05,0,0,0.05,65.85000000000001,0)" xlink:href="#Y"/><use transform="matrix(0.05,0,0,0.05,74.85000000000001,0)" xlink:href="#al"/><use transform="matrix(0.05,0,0,0.05,84.85000000000001,0)" xlink:href="#O"/><use transform="matrix(0.05,0,0,0.05,88.80000000000001,0)" xlink:href="#ab"/><use transform="matrix(0.05,0,0,0.05,98.80000000000001,0)" xlink:href="#Y"/></g><path d="M212-179c-10-28-35-45-73-45-59 0-87 40-87 99 0 60 29 101 89 101 43 0 62-24 78-52l27 14C228-24 195 4 139 4 59 4 22-46 18-125c-6-104 99-153 187-111 19 9 31 26 39 46" id="am"/><g id="y"><use transform="matrix(0.05,0,0,0.05,0,0)" xlink:href="#am"/><use transform="matrix(0.05,0,0,0.05,12.950000000000001,0)" xlink:href="#ad"/><use transform="matrix(0.05,0,0,0.05,18.900000000000002,0)" xlink:href="#L"/><use transform="matrix(0.05,0,0,0.05,28.900000000000002,0)" xlink:href="#Q"/><use transform="matrix(0.05,0,0,0.05,38.900000000000006,0)" xlink:href="#J"/><use transform="matrix(0.05,0,0,0.05,43.900000000000006,0)" xlink:href="#L"/></g><use transform="matrix(0.05,0,0,0.05,0,0)" xlink:href="#Q" id="z"/><g id="A"><use transform="matrix(0.05,0,0,0.05,0,0)" xlink:href="#J"/><use transform="matrix(0.05,0,0,0.05,5,0)" xlink:href="#L"/><use transform="matrix(0.05,0,0,0.05,15,0)" xlink:href="#Q"/><use transform="matrix(0.05,0,0,0.05,25,0)" xlink:href="#R"/></g></defs></g></svg>